<svg width="580" height="400" xmlns="http://www.w3.org/2000/svg">
 <!-- Created with Method Draw - http://github.com/duopixel/Method-Draw/ -->
 <g>
  <title>background</title>
  <rect fill="#fff" id="canvas_background" height="402" width="582" y="-1" x="-1"/>
  <g display="none" overflow="visible" y="0" x="0" height="100%" width="100%" id="canvasGrid">
   <rect fill="url(#gridpattern)" stroke-width="0" y="0" x="0" height="100%" width="100%"/>
  </g>
 </g>
 <g>
  <title>Layer 1</title>
  <path d="m267.5,286c-1,0 -2,0 -2,-1c0,-1 0,-2 0,-3c0,-3 0,-5 0,-6c0,-1 0,-2 0,-3c0,-1 -0.300476,-3.916077 -1,-7c-1.783447,-7.862518 -3.986908,-17.757111 -5,-24c-0.48056,-2.961258 -3,-6 -6,-9c-2,-2 -3.881516,-4.190277 -7,-6c-1.93399,-1.122345 -6.639923,-4.709229 -14,-8c-2.886856,-1.290741 -9.066147,-3.662323 -15,-5c-7.101898,-1.600983 -9.957962,-3.130814 -16,-5c-6.954895,-2.151596 -9.943405,-3.147736 -15,-5c-2.96933,-1.087692 -5.450485,-1.450485 -8,-4c-2.549515,-2.549515 -4,-4 -7,-7c-3,-3 -4.274307,-6.884964 -5,-9c-1.654816,-4.823029 -2,-10 -2,-13c0,-7 0,-13 0,-16c0,-6 0.752563,-12.010223 1,-15c0.501709,-6.062042 1,-9 1,-16c0,-4 -1.337494,-18.310005 -3,-21c-0.7435,-1.203003 -3.906326,-2.103401 -5,-3c-2.78833,-2.285881 -4.902832,-2.224205 -7,-3c-3.867004,-1.430496 -7,-1 -8,-1l-3,-1l-1,-1" id="svg_3" stroke-width="1.5" stroke="#000" fill="none"/>
 </g>
</svg>