<?xml version="1.0" standalone="no"?>
<!DOCTYPE svg PUBLIC "-//W3C//DTD SVG 20010904//EN"
 "http://www.w3.org/TR/2001/REC-SVG-20010904/DTD/svg10.dtd">
<svg version="1.0" xmlns="http://www.w3.org/2000/svg"
 width="236.000000pt" height="314.000000pt" viewBox="0 0 236.000000 314.000000"
 preserveAspectRatio="xMidYMid meet">

<g transform="translate(0.000000,314.000000) scale(0.100000,-0.100000)"
fill="#000000" stroke="none">
<path d="M1895 2700 c-3 -5 3 -10 15 -10 12 0 18 5 15 10 -3 6 -10 10 -15 10
-5 0 -12 -4 -15 -10z"/>
<path d="M1838 2642 c-53 -56 -107 -134 -181 -265 -67 -117 -76 -140 -57 -152
5 -3 19 -20 32 -37 23 -33 10 -30 -29 5 -18 16 -25 18 -37 8 -12 -10 -9 -18
22 -47 29 -27 31 -32 12 -22 -14 7 -34 13 -45 13 -82 2 -193 35 -116 35 27 0
29 3 26 30 -3 23 1 32 18 41 12 7 24 13 25 15 9 7 13 333 5 364 -14 52 -40 50
-88 -7 -50 -59 -88 -126 -126 -223 -35 -92 -36 -103 -3 -125 14 -9 23 -19 20
-22 -3 -3 -17 2 -30 11 -14 9 -32 16 -41 16 -13 0 -13 -3 -3 -20 7 -11 22 -20
33 -20 20 -1 20 -1 0 -12 -19 -11 -19 -11 0 -19 17 -7 18 -8 3 -8 -10 -1 -18
-6 -18 -12 0 -6 9 -8 20 -4 11 4 20 2 20 -4 0 -15 -61 -13 -82 3 -20 15 -82
105 -104 152 -9 18 -25 36 -35 39 -22 7 -34 27 -43 74 -22 118 -42 139 -69 74
-9 -21 -16 -31 -17 -23 0 8 -4 21 -9 29 -8 12 -12 12 -25 2 -12 -10 -16 -33
-16 -98 0 -64 -5 -93 -20 -123 -17 -34 -20 -57 -18 -157 1 -94 -1 -117 -12
-115 -33 8 -150 -149 -172 -232 -14 -53 -19 -57 -101 -76 -46 -11 -61 -19 -68
-38 -5 -13 -7 -28 -4 -33 11 -16 -26 -59 -51 -59 -30 0 -31 -18 -2 -22 42 -6
25 -31 -29 -46 -29 -8 -53 -19 -53 -24 0 -9 23 -7 73 8 22 7 24 -31 2 -40 -21
-8 -19 -28 3 -24 12 2 18 -5 20 -23 2 -21 -2 -28 -22 -33 -15 -3 -26 -11 -26
-18 0 -12 -156 -168 -169 -168 -18 0 -84 -76 -141 -161 -72 -108 -131 -259
-100 -259 6 0 10 5 10 12 0 31 55 120 84 135 28 15 31 14 41 -2 29 -50 42 -60
59 -46 12 10 16 32 16 92 0 73 -2 79 -21 79 -11 0 -29 -5 -40 -10 -30 -16 -23
3 16 43 19 20 35 40 35 44 0 4 16 19 36 33 19 14 51 37 71 52 19 15 60 35 89
45 47 14 61 15 107 4 95 -24 207 -95 207 -132 0 -10 3 -19 8 -19 25 0 172
-184 172 -216 0 -12 7 -35 15 -50 8 -16 15 -36 15 -45 0 -8 5 -20 11 -26 6 -6
12 -49 12 -97 2 -108 21 -110 25 -3 2 53 -2 92 -14 124 -9 27 -25 71 -35 100
-18 54 -84 142 -153 206 -23 20 -37 37 -32 37 13 0 -14 30 -66 71 -51 40 -169
90 -215 91 -16 1 -40 -5 -53 -12 -20 -10 -17 -4 15 32 22 25 47 48 56 50 14 5
15 13 9 47 -8 45 12 177 30 195 5 5 10 20 10 33 0 13 7 26 15 29 19 8 65 -22
65 -41 0 -8 5 -15 10 -15 18 0 10 23 -17 53 l-28 28 32 -5 c18 -4 48 -16 68
-27 41 -25 47 -10 8 21 -19 14 -23 24 -15 28 6 4 21 38 32 75 11 37 24 67 28
67 4 0 20 23 37 50 16 28 32 50 36 50 3 0 27 16 53 36 25 19 51 32 57 29 5 -4
28 5 49 19 22 14 44 26 50 26 6 0 30 9 53 19 75 34 202 54 297 47 93 -7 193
-30 198 -46 2 -5 16 -11 30 -11 27 -1 27 -1 -3 -9 -36 -9 -33 -11 22 -15 l42
-3 11 55 c11 52 10 56 -15 93 l-26 38 52 99 c64 119 108 189 167 266 51 68 52
83 0 29z m-345 -54 c5 -66 1 -230 -8 -284 -4 -22 -14 -34 -37 -45 -22 -9 -35
-25 -43 -49 -10 -30 -16 -35 -48 -38 l-36 -3 4 52 c3 43 0 55 -16 68 -20 16
-20 17 6 84 37 100 79 179 122 230 21 25 41 46 44 46 3 1 9 -27 12 -61z m-477
-137 c5 -44 13 -61 39 -85 18 -17 40 -45 49 -63 8 -17 22 -37 29 -45 8 -8 22
-28 31 -46 9 -18 21 -32 26 -32 6 0 10 -4 10 -10 0 -5 -8 -10 -17 -10 -29 0
-205 -62 -235 -82 -36 -25 -44 -23 -58 12 -14 33 -7 123 10 128 6 2 10 11 10
19 0 14 3 13 21 -3 15 -14 24 -16 37 -8 23 15 27 48 7 67 -19 20 -42 12 -51
-16 -7 -22 -7 -22 -15 1 -5 14 -5 31 1 42 6 10 10 58 10 106 0 68 3 85 12 76
7 -7 11 -39 10 -82 -3 -82 12 -94 22 -17 3 28 11 70 17 91 13 49 25 34 35 -43z
m-46 -192 c0 -11 -7 -19 -17 -19 -15 0 -15 2 -4 9 8 5 11 16 8 26 -4 9 -3 14
3 10 6 -3 10 -15 10 -26z m-780 -1281 l0 -63 -23 29 c-18 23 -29 28 -50 24
-15 -3 -27 -2 -27 3 0 9 80 69 92 69 4 0 8 -28 8 -62z"/>
<path d="M1928 2506 c4 -174 -8 -327 -29 -352 -6 -7 -34 -18 -64 -24 -53 -11
-53 -11 -74 -69 -24 -68 -25 -74 -8 -68 15 6 147 -62 154 -80 3 -7 20 -22 39
-34 19 -11 31 -25 28 -31 -3 -5 3 -16 14 -24 11 -7 30 -35 43 -61 12 -27 30
-59 39 -73 10 -14 21 -36 25 -50 4 -14 25 -74 47 -134 29 -82 41 -133 47 -202
4 -51 13 -100 20 -107 17 -21 62 -157 56 -167 -3 -5 0 -20 6 -32 7 -13 14 -32
15 -43 1 -11 10 -48 19 -83 25 -89 41 -65 20 29 -31 141 -43 184 -70 254 -14
39 -28 97 -30 130 -3 33 -12 85 -21 115 -46 157 -77 248 -92 270 -10 14 -23
42 -31 64 -7 21 -24 55 -37 75 -42 62 -153 169 -189 182 -47 17 -55 40 -12 32
42 -8 27 8 -21 23 -21 7 -28 12 -17 13 11 0 38 -6 60 -14 49 -18 63 -19 48 -4
-7 7 -33 18 -60 25 l-48 13 43 0 c28 1 41 5 37 12 -4 6 -19 7 -35 4 -15 -3
-31 -2 -34 3 -3 5 17 12 44 16 72 10 79 26 91 193 11 147 1 364 -16 370 -7 2
-9 -56 -7 -171z"/>
<path d="M917 1790 c-14 -11 -33 -40 -42 -64 -15 -39 -15 -46 -1 -80 29 -70
119 -83 183 -26 36 33 37 58 5 133 -24 59 -95 76 -145 37z m114 -30 c22 -26
33 -98 18 -117 -17 -20 -64 -43 -89 -43 -26 0 -70 43 -70 67 1 17 1 17 11 1
24 -43 73 7 50 51 -10 18 -15 19 -32 10 -19 -9 -19 -9 -10 10 28 51 87 62 122
21z"/>
<path d="M542 1648 c3 -7 13 -15 22 -16 12 -3 17 1 14 10 -3 7 -13 15 -22 16
-12 3 -17 -1 -14 -10z"/>
<path d="M914 1488 c-11 -17 12 -24 119 -37 56 -7 151 -24 211 -37 125 -28
116 -26 116 -16 0 13 -90 38 -235 66 -173 33 -203 37 -211 24z"/>
<path d="M813 1463 c-28 -10 -11 -32 30 -38 46 -8 285 -80 415 -126 90 -31
102 -34 102 -21 0 5 -33 21 -72 36 -40 15 -93 36 -118 46 -25 10 -92 32 -150
49 -58 17 -125 37 -150 44 -25 8 -51 12 -57 10z"/>
<path d="M512 1409 c2 -7 10 -15 17 -17 8 -3 12 1 9 9 -2 7 -10 15 -17 17 -8
3 -12 -1 -9 -9z"/>
<path d="M882 1329 c5 -15 307 -169 313 -159 7 11 -118 93 -206 135 -74 35
-114 44 -107 24z"/>
<path d="M340 877 c-30 -17 -56 -40 -58 -50 -3 -14 4 -17 41 -17 49 0 70 -18
110 -90 16 -31 19 -32 34 -17 19 19 22 136 5 180 -16 38 -62 36 -132 -6z m110
-28 c6 -22 10 -59 8 -82 l-3 -42 -19 34 c-25 47 -55 70 -91 71 -29 0 -28 1 20
30 28 16 55 29 62 29 7 1 17 -17 23 -40z"/>
<path d="M2325 733 c4 -38 10 -72 15 -76 13 -14 22 50 11 72 -6 11 -11 24 -10
28 4 22 -2 43 -12 43 -8 0 -9 -20 -4 -67z"/>
<path d="M643 628 c-26 -23 -48 -46 -48 -52 0 -6 20 -14 44 -17 34 -4 50 -14
75 -44 42 -49 56 -40 56 34 0 130 -40 155 -127 79z m91 -5 c12 -44 17 -103 9
-103 -5 0 -16 11 -23 25 -10 18 -25 27 -52 32 l-39 6 33 28 c38 32 64 37 72
12z"/>
</g>
</svg>
